<svg xmlns="http://www.w3.org/2000/svg" width="1200" height="1200" viewBox="-1237.4359603492337 -2112.84841815433 1434.731468619363 3040.9070337182416" preserveAspectRatio="xMidYMid meet" style="border: 1px solid;">
    <path d="M 0,0 l -150,0 l 20,-50 l 20, 50 z" stroke="black" fill="red" stroke-width="3"></path>
    <path d="M 0,0 l  150,0 l -20, 50 l -20,-50 z" stroke="black" fill="red" stroke-width="3"></path>
    <!-- ngRepeat: section in slotdesign.follow.sections --><g ng-repeat="section in slotdesign.follow.sections" transform="matrix(1,0,0,1,0,0)" class="ng-scope">
        <path d="M 0,0 l -90,0 l 0,400 l 180,0 l 0,-400 l -90,0" stroke="gray" stroke-width="3"></path>
        <path d="M 0,0 m -48,0 l -4,0 l 0,400 l 4,0 l 0,-400z m 48, 0 m -42,0 l 4,0 l 0,400 l -4,0 l 0,-400z m 42, 0  m 42,0 l -4,0 l 0,400 l 4,0 l 0,-400z m -42, 0 m 48,0 l 4,0 l 0,400 l -4,0 l 0,-400z m -48, 0 " stroke="white" fill="white"></path>
    </g><!-- end ngRepeat: section in slotdesign.follow.sections --><g ng-repeat="section in slotdesign.follow.sections" transform="matrix(1,0,0,1,-0.7148869802242602,399.6315536468909)" class="ng-scope">
        <path d="M 0,0 l -90,0 a 241.5,241.5 0 0,1 -70.73371234344876,170.7662876565512 l 127.27922061357856,127.27922061357853 a 421.5,421.5 0 0,0 123.4544917298702,-298.04550827012974 l -90, 0" stroke="gray" stroke-width="3"></path>
        <path d="M 0,0 m -50,0 l -2,0 a 279.5,279.5 0 0,1 -81.86365465835996,197.63634534164 l 2.828427124746213,2.8284271247461845 a 283.5,283.5 0 0,0 83.03522753361375,-200.4647724663862 l -2,0 m 50,0 m -40,0 l -2,0 a 289.5,289.5 0 0,1 -84.79258684649449,204.70741315350548 l 2.828427124746213,2.8284271247461845 a 293.5,293.5 0 0,0 85.96415972174827,-207.53584027825167 l -2,0 m 40,0 m 40,0 l -2,0 a 369.5,369.5 0 0,1 -108.22404435157068,261.27595564842926 l 2.828427124746213,2.828427124746213 a 373.5,373.5 0 0,0 109.39561722682447,-264.1043827731755 l -2,0 m -40,0 m 50,0 l -2,0 a 379.5,379.5 0 0,1 -111.15297653970521,268.34702346029474 l 2.828427124746213,2.828427124746213 a 383.5,383.5 0 0,0 112.324549414959,-271.17545058504095 l -2,0 m -50,0" stroke="white" fill="white"></path>
    </g><!-- end ngRepeat: section in slotdesign.follow.sections --><g ng-repeat="section in slotdesign.follow.sections" transform="matrix(0.7071067811865476,0.7071067811865475,-0.7071067811865475,0.7071067811865476,-98.52387599710801,633.6690052571223)" class="ng-scope">
        <path d="M 0,0 l -90,0 a 241.5,241.5 0 0,1 -70.73371234344876,170.7662876565512 l 127.27922061357856,127.27922061357853 a 421.5,421.5 0 0,0 123.4544917298702,-298.04550827012974 l -90, 0" stroke="gray" stroke-width="3"></path>
        <path d="M 0,0 m -50,0 l -2,0 a 279.5,279.5 0 0,1 -81.86365465835996,197.63634534164 l 2.828427124746213,2.8284271247461845 a 283.5,283.5 0 0,0 83.03522753361375,-200.4647724663862 l -2,0 m 50,0 m -40,0 l -2,0 a 289.5,289.5 0 0,1 -84.79258684649449,204.70741315350548 l 2.828427124746213,2.8284271247461845 a 293.5,293.5 0 0,0 85.96415972174827,-207.53584027825167 l -2,0 m 40,0 m 40,0 l -2,0 a 369.5,369.5 0 0,1 -108.22404435157068,261.27595564842926 l 2.828427124746213,2.828427124746213 a 373.5,373.5 0 0,0 109.39561722682447,-264.1043827731755 l -2,0 m -40,0 m 50,0 l -2,0 a 379.5,379.5 0 0,1 -111.15297653970521,268.34702346029474 l 2.828427124746213,2.828427124746213 a 383.5,383.5 0 0,0 112.324549414959,-271.17545058504095 l -2,0 m -50,0" stroke="white" fill="white"></path>
    </g><!-- end ngRepeat: section in slotdesign.follow.sections --><g ng-repeat="section in slotdesign.follow.sections" transform="matrix(2.220446049250313e-16,1,-1,2.220446049250313e-16,-333.64466094067274,730.3946609406727)" class="ng-scope">
        <path d="M 0,0 l -90,0 a 241.5,241.5 0 0,1 -70.73371234344876,170.7662876565512 l 127.27922061357856,127.27922061357853 a 421.5,421.5 0 0,0 123.4544917298702,-298.04550827012974 l -90, 0" stroke="gray" stroke-width="3"></path>
        <path d="M 0,0 m -50,0 l -2,0 a 279.5,279.5 0 0,1 -81.86365465835996,197.63634534164 l 2.828427124746213,2.8284271247461845 a 283.5,283.5 0 0,0 83.03522753361375,-200.4647724663862 l -2,0 m 50,0 m -40,0 l -2,0 a 289.5,289.5 0 0,1 -84.79258684649449,204.70741315350548 l 2.828427124746213,2.8284271247461845 a 293.5,293.5 0 0,0 85.96415972174827,-207.53584027825167 l -2,0 m 40,0 m 40,0 l -2,0 a 369.5,369.5 0 0,1 -108.22404435157068,261.27595564842926 l 2.828427124746213,2.828427124746213 a 373.5,373.5 0 0,0 109.39561722682447,-264.1043827731755 l -2,0 m -40,0 m 50,0 l -2,0 a 379.5,379.5 0 0,1 -111.15297653970521,268.34702346029474 l 2.828427124746213,2.828427124746213 a 383.5,383.5 0 0,0 112.324549414959,-271.17545058504095 l -2,0 m -50,0" stroke="white" fill="white"></path>
    </g><!-- end ngRepeat: section in slotdesign.follow.sections --><g ng-repeat="section in slotdesign.follow.sections" transform="matrix(-0.7071067811865474,0.7071067811865477,-0.7071067811865477,-0.7071067811865474,-568.7654458842376,632.9321125509042)" class="ng-scope">
        <path d="M 0,0 l -90,0 a 241.5,241.5 0 0,1 -70.73371234344876,170.7662876565512 l 127.27922061357856,127.27922061357853 a 421.5,421.5 0 0,0 123.4544917298702,-298.04550827012974 l -90, 0" stroke="gray" stroke-width="3"></path>
        <path d="M 0,0 m -50,0 l -2,0 a 279.5,279.5 0 0,1 -81.86365465835996,197.63634534164 l 2.828427124746213,2.8284271247461845 a 283.5,283.5 0 0,0 83.03522753361375,-200.4647724663862 l -2,0 m 50,0 m -40,0 l -2,0 a 289.5,289.5 0 0,1 -84.79258684649449,204.70741315350548 l 2.828427124746213,2.8284271247461845 a 293.5,293.5 0 0,0 85.96415972174827,-207.53584027825167 l -2,0 m 40,0 m 40,0 l -2,0 a 369.5,369.5 0 0,1 -108.22404435157068,261.27595564842926 l 2.828427124746213,2.828427124746213 a 373.5,373.5 0 0,0 109.39561722682447,-264.1043827731755 l -2,0 m -40,0 m 50,0 l -2,0 a 379.5,379.5 0 0,1 -111.15297653970521,268.34702346029474 l 2.828427124746213,2.828427124746213 a 383.5,383.5 0 0,0 112.324549414959,-271.17545058504095 l -2,0 m -50,0" stroke="white" fill="white"></path>
    </g><!-- end ngRepeat: section in slotdesign.follow.sections --><g ng-repeat="section in slotdesign.follow.sections" transform="matrix(-1,2.7755575615628914e-16,-2.7755575615628914e-16,-1,-666.5744349011214,398.15776823445464)" class="ng-scope">
        <path d="M 0,0 l -90,0 l 0,400 l 180,0 l 0,-400 l -90,0" stroke="gray" stroke-width="3"></path>
        <path d="M 0,0 m -48,0 l -4,0 l 0,400 l 4,0 l 0,-400z m 48, 0 m -42,0 l 4,0 l 0,400 l -4,0 l 0,-400z m 42, 0  m 42,0 l -4,0 l 0,400 l 4,0 l 0,-400z m -42, 0 m 48,0 l 4,0 l 0,400 l -4,0 l 0,-400z m -48, 0 " stroke="white" fill="white"></path>
    </g><!-- end ngRepeat: section in slotdesign.follow.sections --><g ng-repeat="section in slotdesign.follow.sections" transform="matrix(-1,2.7755575615628914e-16,-2.7755575615628914e-16,-1,-667.2893218813458,-2.2106781186544495)" class="ng-scope">
        <path d="M 0,0 l -90,0 l 0,400 l 180,0 l 0,-400 l -90,0" stroke="gray" stroke-width="3"></path>
        <path d="M 0,0 m -48,0 l -4,0 l 0,400 l 4,0 l 0,-400z m 48, 0 m -42,0 l 4,0 l 0,400 l -4,0 l 0,-400z m 42, 0  m 42,0 l -4,0 l 0,400 l 4,0 l 0,-400z m -42, 0 m 48,0 l 4,0 l 0,400 l -4,0 l 0,-400z m -48, 0 " stroke="white" fill="white"></path>
    </g><!-- end ngRepeat: section in slotdesign.follow.sections --><g ng-repeat="section in slotdesign.follow.sections" transform="matrix(-1,2.7755575615628914e-16,-2.7755575615628914e-16,-1,-668.0042088615702,-402.5791244717636)" class="ng-scope">
        <path d="M 0,0 l -90,0 l 0,400 l 180,0 l 0,-400 l -90,0" stroke="gray" stroke-width="3"></path>
        <path d="M 0,0 m -48,0 l -4,0 l 0,400 l 4,0 l 0,-400z m 48, 0 m -42,0 l 4,0 l 0,400 l -4,0 l 0,-400z m 42, 0  m 42,0 l -4,0 l 0,400 l 4,0 l 0,-400z m -42, 0 m 48,0 l 4,0 l 0,400 l -4,0 l 0,-400z m -48, 0 " stroke="white" fill="white"></path>
    </g><!-- end ngRepeat: section in slotdesign.follow.sections --><g ng-repeat="section in slotdesign.follow.sections" transform="matrix(-1,2.7755575615628914e-16,-2.7755575615628914e-16,-1,-668.7190958417946,-802.9475708248727)" class="ng-scope">
        <path d="M 0,0 l -90,0 l 0,400 l 180,0 l 0,-400 l -90,0" stroke="gray" stroke-width="3"></path>
        <path d="M 0,0 m -48,0 l -4,0 l 0,400 l 4,0 l 0,-400z m 48, 0 m -42,0 l 4,0 l 0,400 l -4,0 l 0,-400z m 42, 0  m 42,0 l -4,0 l 0,400 l 4,0 l 0,-400z m -42, 0 m 48,0 l 4,0 l 0,400 l -4,0 l 0,-400z m -48, 0 " stroke="white" fill="white"></path>
    </g><!-- end ngRepeat: section in slotdesign.follow.sections --><g ng-repeat="section in slotdesign.follow.sections" transform="matrix(-1,2.7755575615628914e-16,-2.7755575615628914e-16,-1,-669.433982822019,-1203.3160171779818)" class="ng-scope">
        <path d="M 0,0 l -90,0 l 0,400 l 180,0 l 0,-400 l -90,0" stroke="gray" stroke-width="3"></path>
        <path d="M 0,0 m -48,0 l -4,0 l 0,400 l 4,0 l 0,-400z m 48, 0 m -42,0 l 4,0 l 0,400 l -4,0 l 0,-400z m 42, 0  m 42,0 l -4,0 l 0,400 l 4,0 l 0,-400z m -42, 0 m 48,0 l 4,0 l 0,400 l -4,0 l 0,-400z m -48, 0 " stroke="white" fill="white"></path>
    </g><!-- end ngRepeat: section in slotdesign.follow.sections --><g ng-repeat="section in slotdesign.follow.sections" transform="matrix(-1,2.7755575615628914e-16,-2.7755575615628914e-16,-1,-670.1488698022433,-1603.6844635310908)" class="ng-scope">
        <path d="M 0,0 l -90,0 a 241.5,241.5 0 0,1 -70.73371234344876,170.7662876565512 l 127.27922061357856,127.27922061357853 a 421.5,421.5 0 0,0 123.4544917298702,-298.04550827012974 l -90, 0" stroke="gray" stroke-width="3"></path>
        <path d="M 0,0 m -50,0 l -2,0 a 279.5,279.5 0 0,1 -81.86365465835996,197.63634534164 l 2.828427124746213,2.8284271247461845 a 283.5,283.5 0 0,0 83.03522753361375,-200.4647724663862 l -2,0 m 50,0 m -40,0 l -2,0 a 289.5,289.5 0 0,1 -84.79258684649449,204.70741315350548 l 2.828427124746213,2.8284271247461845 a 293.5,293.5 0 0,0 85.96415972174827,-207.53584027825167 l -2,0 m 40,0 m 40,0 l -2,0 a 369.5,369.5 0 0,1 -108.22404435157068,261.27595564842926 l 2.828427124746213,2.828427124746213 a 373.5,373.5 0 0,0 109.39561722682447,-264.1043827731755 l -2,0 m -40,0 m 50,0 l -2,0 a 379.5,379.5 0 0,1 -111.15297653970521,268.34702346029474 l 2.828427124746213,2.828427124746213 a 383.5,383.5 0 0,0 112.324549414959,-271.17545058504095 l -2,0 m -50,0" stroke="white" fill="white"></path>
    </g><!-- end ngRepeat: section in slotdesign.follow.sections --><g ng-repeat="section in slotdesign.follow.sections" transform="matrix(-0.7071067811865478,-0.7071067811865472,0.7071067811865472,-0.7071067811865478,-573.7696547458082,-1838.4588078475404)" class="ng-scope">
        <path d="M 0,0 l -90,0 a 241.5,241.5 0 0,1 -70.73371234344876,170.7662876565512 l 127.27922061357856,127.27922061357853 a 421.5,421.5 0 0,0 123.4544917298702,-298.04550827012974 l -90, 0" stroke="gray" stroke-width="3"></path>
        <path d="M 0,0 m -50,0 l -2,0 a 279.5,279.5 0 0,1 -81.86365465835996,197.63634534164 l 2.828427124746213,2.8284271247461845 a 283.5,283.5 0 0,0 83.03522753361375,-200.4647724663862 l -2,0 m 50,0 m -40,0 l -2,0 a 289.5,289.5 0 0,1 -84.79258684649449,204.70741315350548 l 2.828427124746213,2.8284271247461845 a 293.5,293.5 0 0,0 85.96415972174827,-207.53584027825167 l -2,0 m 40,0 m 40,0 l -2,0 a 369.5,369.5 0 0,1 -108.22404435157068,261.27595564842926 l 2.828427124746213,2.828427124746213 a 373.5,373.5 0 0,0 109.39561722682447,-264.1043827731755 l -2,0 m -40,0 m 50,0 l -2,0 a 379.5,379.5 0 0,1 -111.15297653970521,268.34702346029474 l 2.828427124746213,2.828427124746213 a 383.5,383.5 0 0,0 112.324549414959,-271.17545058504095 l -2,0 m -50,0" stroke="white" fill="white"></path>
    </g><!-- end ngRepeat: section in slotdesign.follow.sections --><g ng-repeat="section in slotdesign.follow.sections" transform="matrix(-4.440892098500626e-16,-1,1,-4.440892098500626e-16,-340.0786437626921,-1935.9213562373088)" class="ng-scope">
        <path d="M 0,0 l -90,0 a 241.5,241.5 0 0,1 -70.73371234344876,170.7662876565512 l 127.27922061357856,127.27922061357853 a 421.5,421.5 0 0,0 123.4544917298702,-298.04550827012974 l -90, 0" stroke="gray" stroke-width="3"></path>
        <path d="M 0,0 m -50,0 l -2,0 a 279.5,279.5 0 0,1 -81.86365465835996,197.63634534164 l 2.828427124746213,2.8284271247461845 a 283.5,283.5 0 0,0 83.03522753361375,-200.4647724663862 l -2,0 m 50,0 m -40,0 l -2,0 a 289.5,289.5 0 0,1 -84.79258684649449,204.70741315350548 l 2.828427124746213,2.8284271247461845 a 293.5,293.5 0 0,0 85.96415972174827,-207.53584027825167 l -2,0 m 40,0 m 40,0 l -2,0 a 369.5,369.5 0 0,1 -108.22404435157068,261.27595564842926 l 2.828427124746213,2.828427124746213 a 373.5,373.5 0 0,0 109.39561722682447,-264.1043827731755 l -2,0 m -40,0 m 50,0 l -2,0 a 379.5,379.5 0 0,1 -111.15297653970521,268.34702346029474 l 2.828427124746213,2.828427124746213 a 383.5,383.5 0 0,0 112.324549414959,-271.17545058504095 l -2,0 m -50,0" stroke="white" fill="white"></path>
    </g><!-- end ngRepeat: section in slotdesign.follow.sections --><g ng-repeat="section in slotdesign.follow.sections" transform="matrix(0.7071067811865471,-0.7071067811865479,0.7071067811865479,0.7071067811865471,-106.3876327795758,-1839.1957005537583)" class="ng-scope">
        <path d="M 0,0 l -90,0 a 241.5,241.5 0 0,1 -70.73371234344876,170.7662876565512 l 127.27922061357856,127.27922061357853 a 421.5,421.5 0 0,0 123.4544917298702,-298.04550827012974 l -90, 0" stroke="gray" stroke-width="3"></path>
        <path d="M 0,0 m -50,0 l -2,0 a 279.5,279.5 0 0,1 -81.86365465835996,197.63634534164 l 2.828427124746213,2.8284271247461845 a 283.5,283.5 0 0,0 83.03522753361375,-200.4647724663862 l -2,0 m 50,0 m -40,0 l -2,0 a 289.5,289.5 0 0,1 -84.79258684649449,204.70741315350548 l 2.828427124746213,2.8284271247461845 a 293.5,293.5 0 0,0 85.96415972174827,-207.53584027825167 l -2,0 m 40,0 m 40,0 l -2,0 a 369.5,369.5 0 0,1 -108.22404435157068,261.27595564842926 l 2.828427124746213,2.828427124746213 a 373.5,373.5 0 0,0 109.39561722682447,-264.1043827731755 l -2,0 m -40,0 m 50,0 l -2,0 a 379.5,379.5 0 0,1 -111.15297653970521,268.34702346029474 l 2.828427124746213,2.828427124746213 a 383.5,383.5 0 0,0 112.324549414959,-271.17545058504095 l -2,0 m -50,0" stroke="white" fill="white"></path>
    </g><!-- end ngRepeat: section in slotdesign.follow.sections --><g ng-repeat="section in slotdesign.follow.sections" transform="matrix(1,-6.661338147750939e-16,6.661338147750939e-16,1,-10.008417723140422,-1605.1582489435268)" class="ng-scope">
        <path d="M 0,0 l -90,0 a 241.5,241.5 0 0,1 -70.73371234344876,170.7662876565512 l 127.27922061357856,127.27922061357853 a 421.5,421.5 0 0,0 123.4544917298702,-298.04550827012974 l -90, 0" stroke="gray" stroke-width="3"></path>
        <path d="M 0,0 m -50,0 l -2,0 a 279.5,279.5 0 0,1 -81.86365465835996,197.63634534164 l 2.828427124746213,2.8284271247461845 a 283.5,283.5 0 0,0 83.03522753361375,-200.4647724663862 l -2,0 m 50,0 m -40,0 l -2,0 a 289.5,289.5 0 0,1 -84.79258684649449,204.70741315350548 l 2.828427124746213,2.8284271247461845 a 293.5,293.5 0 0,0 85.96415972174827,-207.53584027825167 l -2,0 m 40,0 m 40,0 l -2,0 a 369.5,369.5 0 0,1 -108.22404435157068,261.27595564842926 l 2.828427124746213,2.828427124746213 a 373.5,373.5 0 0,0 109.39561722682447,-264.1043827731755 l -2,0 m -40,0 m 50,0 l -2,0 a 379.5,379.5 0 0,1 -111.15297653970521,268.34702346029474 l 2.828427124746213,2.828427124746213 a 383.5,383.5 0 0,0 112.324549414959,-271.17545058504095 l -2,0 m -50,0" stroke="white" fill="white"></path>
    </g><!-- end ngRepeat: section in slotdesign.follow.sections --><g ng-repeat="section in slotdesign.follow.sections" transform="matrix(0.707106781186548,0.707106781186547,-0.707106781186547,0.707106781186548,-107.81740674002401,-1371.1207973332953)" class="ng-scope">
        <path d="M 0,0 l -90,0 l 0,400 l 180,0 l 0,-400 l -90,0" stroke="gray" stroke-width="3"></path>
        <path d="M 0,0 m -48,0 l -4,0 l 0,400 l 4,0 l 0,-400z m 48, 0 m -42,0 l 4,0 l 0,400 l -4,0 l 0,-400z m 42, 0  m 42,0 l -4,0 l 0,400 l 4,0 l 0,-400z m -42, 0 m 48,0 l 4,0 l 0,400 l -4,0 l 0,-400z m -48, 0 " stroke="white" fill="white"></path>
    </g><!-- end ngRepeat: section in slotdesign.follow.sections --><g ng-repeat="section in slotdesign.follow.sections" transform="matrix(0.707106781186548,0.707106781186547,-0.707106781186547,0.707106781186548,-391.37500619486707,-1088.646531211785)" class="ng-scope">
        <path d="M 0,0 l -90,0 a 241.5,241.5 0 0,1 -70.73371234344876,170.7662876565512 l 127.27922061357856,127.27922061357853 a 421.5,421.5 0 0,0 123.4544917298702,-298.04550827012974 l -90, 0" stroke="gray" stroke-width="3"></path>
        <path d="M 0,0 m -50,0 l -2,0 a 279.5,279.5 0 0,1 -81.86365465835996,197.63634534164 l 2.828427124746213,2.8284271247461845 a 283.5,283.5 0 0,0 83.03522753361375,-200.4647724663862 l -2,0 m 50,0 m -40,0 l -2,0 a 289.5,289.5 0 0,1 -84.79258684649449,204.70741315350548 l 2.828427124746213,2.8284271247461845 a 293.5,293.5 0 0,0 85.96415972174827,-207.53584027825167 l -2,0 m 40,0 m 40,0 l -2,0 a 369.5,369.5 0 0,1 -108.22404435157068,261.27595564842926 l 2.828427124746213,2.828427124746213 a 373.5,373.5 0 0,0 109.39561722682447,-264.1043827731755 l -2,0 m -40,0 m 50,0 l -2,0 a 379.5,379.5 0 0,1 -111.15297653970521,268.34702346029474 l 2.828427124746213,2.828427124746213 a 383.5,383.5 0 0,0 112.324549414959,-271.17545058504095 l -2,0 m -50,0" stroke="white" fill="white"></path>
    </g><!-- end ngRepeat: section in slotdesign.follow.sections --><g ng-repeat="section in slotdesign.follow.sections" transform="matrix(7.216449660063518e-16,1,-1,7.216449660063518e-16,-626.4957911384317,-991.9208755282344)" class="ng-scope">
        <path d="M 0,0 l -90,0 l 0,100 l 180,0 l 0,-100 l -90,0" stroke="gray" stroke-width="3"></path>
        <path d="M 0,0 m -48,0 l -4,0 l 0,100 l 4,0 l 0,-100z m 48, 0 m -42,0 l 4,0 l 0,100 l -4,0 l 0,-100z m 42, 0  m 42,0 l -4,0 l 0,100 l 4,0 l 0,-100z m -42, 0 m 48,0 l 4,0 l 0,100 l -4,0 l 0,-100z m -48, 0 " stroke="white" fill="white"></path>
    </g><!-- end ngRepeat: section in slotdesign.follow.sections --><g ng-repeat="section in slotdesign.follow.sections" transform="matrix(-0.7071067811865481,-0.7071067811865469,0.7071067811865469,-0.7071067811865481,-961.6165760819964,-895.1952198446837)" class="ng-scope">
        <path d="M 0,0 l -90,0 a 241.5,241.5 0 0,1 -70.73371234344876,170.7662876565512 l 127.27922061357856,127.27922061357853 a 421.5,421.5 0 0,0 123.4544917298702,-298.04550827012974 l -90, 0" stroke="gray" stroke-width="3"></path>
        <path d="M 0,0 m -50,0 l -2,0 a 279.5,279.5 0 0,1 -81.86365465835996,197.63634534164 l 2.828427124746213,2.8284271247461845 a 283.5,283.5 0 0,0 83.03522753361375,-200.4647724663862 l -2,0 m 50,0 m -40,0 l -2,0 a 289.5,289.5 0 0,1 -84.79258684649449,204.70741315350548 l 2.828427124746213,2.8284271247461845 a 293.5,293.5 0 0,0 85.96415972174827,-207.53584027825167 l -2,0 m 40,0 m 40,0 l -2,0 a 369.5,369.5 0 0,1 -108.22404435157068,261.27595564842926 l 2.828427124746213,2.828427124746213 a 373.5,373.5 0 0,0 109.39561722682447,-264.1043827731755 l -2,0 m -40,0 m 50,0 l -2,0 a 379.5,379.5 0 0,1 -111.15297653970521,268.34702346029474 l 2.828427124746213,2.828427124746213 a 383.5,383.5 0 0,0 112.324549414959,-271.17545058504095 l -2,0 m -50,0" stroke="white" fill="white"></path>
    </g><!-- end ngRepeat: section in slotdesign.follow.sections --><g ng-repeat="section in slotdesign.follow.sections" transform="matrix(-1,1.1102230246251565e-15,-1.1102230246251565e-15,-1,-1059.4255650988798,-661.1577682344523)" class="ng-scope">
        <path d="M 0,0 l -90,0 a 241.5,241.5 0 0,1 -70.73371234344876,170.7662876565512 l 127.27922061357856,127.27922061357853 a 421.5,421.5 0 0,0 123.4544917298702,-298.04550827012974 l -90, 0" stroke="gray" stroke-width="3"></path>
        <path d="M 0,0 m -50,0 l -2,0 a 279.5,279.5 0 0,1 -81.86365465835996,197.63634534164 l 2.828427124746213,2.8284271247461845 a 283.5,283.5 0 0,0 83.03522753361375,-200.4647724663862 l -2,0 m 50,0 m -40,0 l -2,0 a 289.5,289.5 0 0,1 -84.79258684649449,204.70741315350548 l 2.828427124746213,2.8284271247461845 a 293.5,293.5 0 0,0 85.96415972174827,-207.53584027825167 l -2,0 m 40,0 m 40,0 l -2,0 a 369.5,369.5 0 0,1 -108.22404435157068,261.27595564842926 l 2.828427124746213,2.828427124746213 a 373.5,373.5 0 0,0 109.39561722682447,-264.1043827731755 l -2,0 m -40,0 m 50,0 l -2,0 a 379.5,379.5 0 0,1 -111.15297653970521,268.34702346029474 l 2.828427124746213,2.828427124746213 a 383.5,383.5 0 0,0 112.324549414959,-271.17545058504095 l -2,0 m -50,0" stroke="white" fill="white"></path>
    </g><!-- end ngRepeat: section in slotdesign.follow.sections --><g ng-repeat="section in slotdesign.follow.sections" transform="matrix(-0.7071067811865466,0.7071067811865485,-0.7071067811865485,-0.7071067811865466,-963.0463500424443,-427.12031662422106)" class="ng-scope">
        <path d="M 0,0 l -90,0 a 241.5,241.5 0 0,1 -70.73371234344876,170.7662876565512 l 127.27922061357856,127.27922061357853 a 421.5,421.5 0 0,0 123.4544917298702,-298.04550827012974 l -90, 0" stroke="gray" stroke-width="3"></path>
        <path d="M 0,0 m -50,0 l -2,0 a 279.5,279.5 0 0,1 -81.86365465835996,197.63634534164 l 2.828427124746213,2.8284271247461845 a 283.5,283.5 0 0,0 83.03522753361375,-200.4647724663862 l -2,0 m 50,0 m -40,0 l -2,0 a 289.5,289.5 0 0,1 -84.79258684649449,204.70741315350548 l 2.828427124746213,2.8284271247461845 a 293.5,293.5 0 0,0 85.96415972174827,-207.53584027825167 l -2,0 m 40,0 m 40,0 l -2,0 a 369.5,369.5 0 0,1 -108.22404435157068,261.27595564842926 l 2.828427124746213,2.828427124746213 a 373.5,373.5 0 0,0 109.39561722682447,-264.1043827731755 l -2,0 m -40,0 m 50,0 l -2,0 a 379.5,379.5 0 0,1 -111.15297653970521,268.34702346029474 l 2.828427124746213,2.828427124746213 a 383.5,383.5 0 0,0 112.324549414959,-271.17545058504095 l -2,0 m -50,0" stroke="white" fill="white"></path>
    </g><!-- end ngRepeat: section in slotdesign.follow.sections --><g ng-repeat="section in slotdesign.follow.sections" transform="matrix(1.5543122344752192e-15,1,-1,1.5543122344752192e-15,-729.3553390593279,-330.3946609406711)" class="ng-scope">
        <path d="M 0,0 l -90,0 a 241.5,241.5 0 0,1 -70.73371234344876,170.7662876565512 l 127.27922061357856,127.27922061357853 a 421.5,421.5 0 0,0 123.4544917298702,-298.04550827012974 l -90, 0" stroke="gray" stroke-width="3"></path>
        <path d="M 0,0 m -50,0 l -2,0 a 279.5,279.5 0 0,1 -81.86365465835996,197.63634534164 l 2.828427124746213,2.8284271247461845 a 283.5,283.5 0 0,0 83.03522753361375,-200.4647724663862 l -2,0 m 50,0 m -40,0 l -2,0 a 289.5,289.5 0 0,1 -84.79258684649449,204.70741315350548 l 2.828427124746213,2.8284271247461845 a 293.5,293.5 0 0,0 85.96415972174827,-207.53584027825167 l -2,0 m 40,0 m 40,0 l -2,0 a 369.5,369.5 0 0,1 -108.22404435157068,261.27595564842926 l 2.828427124746213,2.828427124746213 a 373.5,373.5 0 0,0 109.39561722682447,-264.1043827731755 l -2,0 m -40,0 m 50,0 l -2,0 a 379.5,379.5 0 0,1 -111.15297653970521,268.34702346029474 l 2.828427124746213,2.828427124746213 a 383.5,383.5 0 0,0 112.324549414959,-271.17545058504095 l -2,0 m -50,0" stroke="white" fill="white"></path>
    </g><!-- end ngRepeat: section in slotdesign.follow.sections --><g ng-repeat="section in slotdesign.follow.sections" transform="matrix(-1.6767769143899545e-15,-1,1,-1.6767769143899545e-15,-730.0702260395522,-330.7631072937802)" class="ng-scope">
        <path d="M 0,0 l -90,0 l 0,400 l 180,0 l 0,-400 l -90,0" stroke="gray" stroke-width="3"></path>
        <path d="M 0,0 m -48,0 l -4,0 l 0,400 l 4,0 l 0,-400z m 48, 0 m -42,0 l 4,0 l 0,400 l -4,0 l 0,-400z m 42, 0  m 42,0 l -4,0 l 0,400 l 4,0 l 0,-400z m -42, 0 m 48,0 l 4,0 l 0,400 l -4,0 l 0,-400z m -48, 0 " stroke="white" fill="white"></path>
    </g><!-- end ngRepeat: section in slotdesign.follow.sections --><g ng-repeat="section in slotdesign.follow.sections" transform="matrix(-1.6767769143899545e-15,-1,1,-1.6767769143899545e-15,-330.7851130197764,-331.13155364689)" class="ng-scope">
        <path d="M 0,0 l -90,0 a 241.5,241.5 0 0,1 -70.73371234344876,170.7662876565512 l 127.27922061357856,127.27922061357853 a 421.5,421.5 0 0,0 123.4544917298702,-298.04550827012974 l -90, 0" stroke="gray" stroke-width="3"></path>
        <path d="M 0,0 m -50,0 l -2,0 a 279.5,279.5 0 0,1 -81.86365465835996,197.63634534164 l 2.828427124746213,2.8284271247461845 a 283.5,283.5 0 0,0 83.03522753361375,-200.4647724663862 l -2,0 m 50,0 m -40,0 l -2,0 a 289.5,289.5 0 0,1 -84.79258684649449,204.70741315350548 l 2.828427124746213,2.8284271247461845 a 293.5,293.5 0 0,0 85.96415972174827,-207.53584027825167 l -2,0 m 40,0 m 40,0 l -2,0 a 369.5,369.5 0 0,1 -108.22404435157068,261.27595564842926 l 2.828427124746213,2.828427124746213 a 373.5,373.5 0 0,0 109.39561722682447,-264.1043827731755 l -2,0 m -40,0 m 50,0 l -2,0 a 379.5,379.5 0 0,1 -111.15297653970521,268.34702346029474 l 2.828427124746213,2.828427124746213 a 383.5,383.5 0 0,0 112.324549414959,-271.17545058504095 l -2,0 m -50,0" stroke="white" fill="white"></path>
    </g><!-- end ngRepeat: section in slotdesign.follow.sections --><g ng-repeat="section in slotdesign.follow.sections" transform="matrix(0.7071067811865462,-0.7071067811865488,0.7071067811865488,0.7071067811865462,-97.09410203666002,-234.40589796333998)" class="ng-scope">
        <path d="M 0,0 l -90,0 a 241.5,241.5 0 0,1 -70.73371234344876,170.7662876565512 l 127.27922061357856,127.27922061357853 a 421.5,421.5 0 0,0 123.4544917298702,-298.04550827012974 l -90, 0" stroke="gray" stroke-width="3"></path>
        <path d="M 0,0 m -50,0 l -2,0 a 279.5,279.5 0 0,1 -81.86365465835996,197.63634534164 l 2.828427124746213,2.8284271247461845 a 283.5,283.5 0 0,0 83.03522753361375,-200.4647724663862 l -2,0 m 50,0 m -40,0 l -2,0 a 289.5,289.5 0 0,1 -84.79258684649449,204.70741315350548 l 2.828427124746213,2.8284271247461845 a 293.5,293.5 0 0,0 85.96415972174827,-207.53584027825167 l -2,0 m 40,0 m 40,0 l -2,0 a 369.5,369.5 0 0,1 -108.22404435157068,261.27595564842926 l 2.828427124746213,2.828427124746213 a 373.5,373.5 0 0,0 109.39561722682447,-264.1043827731755 l -2,0 m -40,0 m 50,0 l -2,0 a 379.5,379.5 0 0,1 -111.15297653970521,268.34702346029474 l 2.828427124746213,2.828427124746213 a 383.5,383.5 0 0,0 112.324549414959,-271.17545058504095 l -2,0 m -50,0" stroke="white" fill="white"></path>
    </g><!-- end ngRepeat: section in slotdesign.follow.sections -->
</svg>
